<svg xmlns="http://www.w3.org/2000/svg" width="720" height="420" viewBox="0 0 720 420">
  <rect width="100%" height="100%" fill="white"/>
  <text x="24" y="34" font-size="22" font-family="Arial">Latency Distribution Across Versions</text>
  <line x1="80" y1="350" x2="620" y2="350" stroke="#666"/>
  <line x1="80" y1="80" x2="80" y2="350" stroke="#666"/>
  <polyline fill="none" stroke="#2ca02c" stroke-width="3" points="120,195 270,247 420,264 570,311"/>
  <polyline fill="none" stroke="#d62728" stroke-width="3" points="120,144 270,187 420,212 570,268"/>
  <circle cx="120" cy="195" r="4" fill="#2ca02c"/>
  <circle cx="120" cy="144" r="4" fill="#d62728"/>
  <text x="100" y="372" font-size="12" font-family="Arial">v0.0.1</text>
  <circle cx="270" cy="247" r="4" fill="#2ca02c"/>
  <circle cx="270" cy="187" r="4" fill="#d62728"/>
  <text x="250" y="372" font-size="12" font-family="Arial">v0.0.2</text>
  <circle cx="420" cy="264" r="4" fill="#2ca02c"/>
  <circle cx="420" cy="212" r="4" fill="#d62728"/>
  <text x="400" y="372" font-size="12" font-family="Arial">v0.0.3</text>
  <circle cx="570" cy="311" r="4" fill="#2ca02c"/>
  <circle cx="570" cy="268" r="4" fill="#d62728"/>
  <text x="550" y="372" font-size="12" font-family="Arial">v0.0.4</text>
  <text x="500" y="95" font-size="12" fill="#2ca02c" font-family="Arial">p50</text>
  <text x="540" y="95" font-size="12" fill="#d62728" font-family="Arial">p95</text>
</svg>
